<svg width="300" height="180" viewBox="0 0 300 180" fill="none" xmlns="http://www.w3.org/2000/svg">
<path d="M26 94.5174V155.424C26 159.29 29.134 162.424 33 162.424H267C270.866 162.424 274 159.29 274 155.424V94.4845C274 92.6523 273.441 90.8637 272.397 89.3578L224.731 20.5822C223.61 18.9649 221.767 18 219.799 18H80.9046C78.9509 18 77.1196 18.9512 75.996 20.5495L27.6372 89.3416C26.5717 90.8572 26 92.6648 26 94.5174Z" fill="#5F6AA1"/>
<path d="M80.7059 57.3882L40.5882 125.223H259.412L220.024 57.3882H80.7059Z" fill="#6E79B2"/>
<path d="M80.7059 57.3881L33.2941 162.423V95.3176L80.7059 21.647V57.3881Z" fill="#7B85BF"/>
<path d="M220.024 57.3881L266.706 162.423V95.3176L220.024 21.647V57.3881Z" fill="#7B85BF"/>
<path d="M33.2941 91.6707V162.424H266.706V91.6707H199.682C198.025 91.6707 196.682 93.0138 196.682 94.6707V95.153C196.682 98.4667 193.996 101.153 190.682 101.153H109.318C106.004 101.153 103.318 98.4667 103.318 95.153V94.6707C103.318 93.0138 101.975 91.6707 100.318 91.6707H33.2941Z" fill="#5F6AA1"/>
<rect x="80.7059" y="21.647" width="139.318" height="35.7412" fill="#828CC6"/>
<path d="M179.906 116.471C181.517 116.471 182.824 117.777 182.824 119.388C182.824 121 181.517 122.306 179.906 122.306H120.094C118.483 122.306 117.177 121 117.177 119.388C117.177 117.777 118.483 116.471 120.094 116.471H179.906Z" fill="#7F89C2"/>
</svg>
