<svg width="128" height="128" viewBox="0 0 128 128" fill="none" xmlns="http://www.w3.org/2000/svg">
<g clip-path="url(#clip0_70_2)">
<mask id="mask0_70_2" style="mask-type:luminance" maskUnits="userSpaceOnUse" x="0" y="0" width="128" height="128">
<path d="M0 0H128V128H0V0Z" fill="white"/>
</mask>
<g mask="url(#mask0_70_2)">
<g opacity="0.8" filter="url(#filter0_f_70_2)">
<path d="M64 106C92.7188 106 116 104.209 116 102C116 99.7909 92.7188 98 64 98C35.2812 98 12 99.7909 12 102C12 104.209 35.2812 106 64 106Z" fill="#807D79" fill-opacity="0.3"/>
</g>
<path d="M34.21 40.004L11.509 65.43C11.1812 65.7966 11 66.2712 11 66.763V78H117V66.807C117 66.289 116.799 65.792 116.44 65.419L91.77 39.835C91.2102 39.2545 90.5391 38.7928 89.7969 38.4776C89.0546 38.1623 88.2564 37.9999 87.45 38H38.687C37.842 38.0001 37.0066 38.1787 36.2354 38.524C35.4643 38.8694 34.7747 39.3737 34.212 40.004H34.21Z" fill="url(#paint0_linear_70_2)"/>
<path d="M35.552 60.923L29 68H43V77H85V68H99L92.448 60.924C91.8863 60.3172 91.2052 59.8331 90.4475 59.502C89.6898 59.1709 88.8719 59 88.045 59H39.955C39.1282 58.9999 38.3103 59.1706 37.5526 59.5015C36.7949 59.8325 36.1138 60.3164 35.552 60.923Z" fill="#D9D7DF"/>
<path d="M37.215 58.964L29 68V80H99V68L90.785 58.964C90.2226 58.3454 89.5371 57.8511 88.7725 57.5129C88.0079 57.1746 87.1811 57 86.345 57H41.655C40.8189 57 39.9921 57.1746 39.2275 57.5129C38.4629 57.8511 37.7774 58.3454 37.215 58.964Z" fill="url(#paint1_linear_70_2)"/>
<path fill-rule="evenodd" clip-rule="evenodd" d="M10 66.526V98C10 99.5913 10.6321 101.117 11.7574 102.243C12.8826 103.368 14.4087 104 16 104H112C113.591 104 115.117 103.368 116.243 102.243C117.368 101.117 118 99.5913 118 98V66.614C118 65.5784 117.598 64.5833 116.879 63.838L93.359 39.447C92.613 38.6733 91.7187 38.0579 90.7296 37.6375C89.7405 37.2171 88.6768 37.0002 87.602 37H38.58C37.4533 37.0001 36.3394 37.2382 35.3111 37.6986C34.2828 38.1591 33.3634 38.8316 32.613 39.672L11.015 63.862C10.361 64.5952 9.99967 65.5435 10 66.526ZM47.188 69.781C46.8225 69.2329 46.3273 68.7835 45.7464 68.4728C45.1655 68.1621 44.5168 67.9997 43.858 68H14.922C13.202 68 12.284 65.972 13.42 64.68L34.208 41.038C34.7711 40.3976 35.4643 39.8846 36.2413 39.5332C37.0183 39.1817 37.8612 39 38.714 39H87.42C88.2347 38.9999 89.041 39.1658 89.7895 39.4874C90.5381 39.8091 91.2133 40.2799 91.774 40.871L114.297 64.624C115.506 65.898 114.603 68 112.846 68H84.141C83.4824 67.9998 82.8339 68.1623 82.2532 68.473C81.6724 68.7837 81.1774 69.233 80.812 69.781L77.188 75.219C76.8226 75.767 76.3276 76.2163 75.7468 76.527C75.1661 76.8377 74.5176 77.0002 73.859 77H54.141C53.4825 77 52.8343 76.8374 52.2537 76.5267C51.6732 76.2161 51.1783 75.7669 50.813 75.219L47.188 69.781Z" fill="url(#paint2_linear_70_2)"/>
<g filter="url(#filter1_f_70_2)">
<path d="M36.5 41H88.5L111.662 64.6C112.904 65.864 112.007 68 110.235 68H84.141C83.4824 67.9998 82.8339 68.1623 82.2532 68.473C81.6724 68.7837 81.1774 69.233 80.812 69.781L77.188 75.219C76.8226 75.767 76.3276 76.2163 75.7468 76.527C75.1661 76.8377 74.5176 77.0002 73.859 77H54.141C53.4825 77 52.8343 76.8374 52.2537 76.5267C51.6732 76.2161 51.1783 75.7669 50.813 75.219L47.187 69.781C46.8218 69.2333 46.3271 68.7842 45.7467 68.4735C45.1664 68.1628 44.5183 68.0002 43.86 68H17.392C15.676 68 14.757 65.981 15.884 64.687L36.5 41Z" fill="url(#paint3_linear_70_2)" fill-opacity="0.1"/>
</g>
<path opacity="0.5" d="M110.531 35.2671C110.566 35.1713 110.63 35.0886 110.714 35.0301C110.798 34.9717 110.898 34.9404 111 34.9404C111.102 34.9404 111.202 34.9717 111.286 35.0301C111.37 35.0886 111.434 35.1713 111.469 35.2671L112.271 37.4341C112.321 37.5711 112.429 37.6791 112.566 37.7291L114.733 38.5311C114.829 38.5665 114.912 38.6305 114.97 38.7143C115.028 38.7982 115.06 38.8979 115.06 39.0001C115.06 39.1023 115.028 39.202 114.97 39.2859C114.912 39.3697 114.829 39.4337 114.733 39.4691L112.566 40.2711C112.498 40.296 112.437 40.3352 112.386 40.3862C112.335 40.4371 112.296 40.4985 112.271 40.5661L111.469 42.7331C111.434 42.829 111.37 42.9117 111.286 42.9701C111.202 43.0285 111.102 43.0598 111 43.0598C110.898 43.0598 110.798 43.0285 110.714 42.9701C110.63 42.9117 110.566 42.829 110.531 42.7331L109.729 40.5661C109.704 40.4985 109.665 40.4371 109.614 40.3862C109.563 40.3352 109.502 40.296 109.434 40.2711L107.267 39.4691C107.171 39.4337 107.088 39.3697 107.03 39.2859C106.972 39.202 106.94 39.1023 106.94 39.0001C106.94 38.8979 106.972 38.7982 107.03 38.7143C107.088 38.6305 107.171 38.5665 107.267 38.5311L109.434 37.7291C109.502 37.7043 109.563 37.665 109.614 37.6141C109.665 37.5631 109.704 37.5017 109.729 37.4341L110.531 35.2671ZM88.531 17.2671C88.5664 17.1713 88.6304 17.0886 88.7142 17.0302C88.7981 16.9717 88.8978 16.9404 89 16.9404C89.1022 16.9404 89.2019 16.9717 89.2858 17.0302C89.3696 17.0886 89.4336 17.1713 89.469 17.2671L90.271 19.4341C90.296 19.5016 90.3353 19.5629 90.3863 19.6138C90.4372 19.6648 90.4985 19.7041 90.566 19.7291L92.733 20.5311C92.8288 20.5665 92.9115 20.6305 92.97 20.7143C93.0284 20.7982 93.0597 20.8979 93.0597 21.0001C93.0597 21.1023 93.0284 21.202 92.97 21.2859C92.9115 21.3697 92.8288 21.4337 92.733 21.4691L90.566 22.2711C90.4985 22.2961 90.4372 22.3355 90.3863 22.3864C90.3353 22.4373 90.296 22.4986 90.271 22.5661L89.469 24.7331C89.4336 24.829 89.3696 24.9117 89.2858 24.9701C89.2019 25.0285 89.1022 25.0598 89 25.0598C88.8978 25.0598 88.7981 25.0285 88.7142 24.9701C88.6304 24.9117 88.5664 24.829 88.531 24.7331L87.729 22.5661C87.704 22.4986 87.6646 22.4373 87.6137 22.3864C87.5628 22.3355 87.5015 22.2961 87.434 22.2711L85.267 21.4691C85.1711 21.4337 85.0884 21.3697 85.03 21.2859C84.9716 21.202 84.9403 21.1023 84.9403 21.0001C84.9403 20.8979 84.9716 20.7982 85.03 20.7143C85.0884 20.6305 85.1711 20.5665 85.267 20.5311L87.434 19.7291C87.5015 19.7041 87.5628 19.6648 87.6137 19.6138C87.6646 19.5629 87.704 19.5016 87.729 19.4341L88.531 17.2671ZM15.531 7.26711C15.5664 7.17126 15.6304 7.08856 15.7142 7.03015C15.7981 6.97174 15.8978 6.94043 16 6.94043C16.1022 6.94043 16.2019 6.97174 16.2858 7.03015C16.3696 7.08856 16.4336 7.17126 16.469 7.26711L18.621 13.0841C18.6461 13.1517 18.6856 13.2131 18.7367 13.264C18.7878 13.3149 18.8493 13.3542 18.917 13.3791L24.733 15.5311C24.8288 15.5665 24.9115 15.6305 24.97 15.7143C25.0284 15.7982 25.0597 15.8979 25.0597 16.0001C25.0597 16.1023 25.0284 16.202 24.97 16.2859C24.9115 16.3697 24.8288 16.4337 24.733 16.4691L18.916 18.6211C18.8484 18.6463 18.787 18.6857 18.7361 18.7368C18.6852 18.7879 18.6459 18.8494 18.621 18.9171L16.469 24.7331C16.4336 24.829 16.3696 24.9117 16.2858 24.9701C16.2019 25.0285 16.1022 25.0598 16 25.0598C15.8978 25.0598 15.7981 25.0285 15.7142 24.9701C15.6304 24.9117 15.5664 24.829 15.531 24.7331L13.379 18.9161C13.354 18.8486 13.3146 18.7873 13.2637 18.7364C13.2128 18.6855 13.1515 18.6461 13.084 18.6211L7.26699 16.4701C7.17114 16.4347 7.08844 16.3707 7.03003 16.2869C6.97162 16.203 6.94031 16.1033 6.94031 16.0011C6.94031 15.8989 6.97162 15.7992 7.03003 15.7153C7.08844 15.6315 7.17114 15.5675 7.26699 15.5321L13.084 13.3801C13.1515 13.3551 13.2128 13.3158 13.2637 13.2649C13.3146 13.2139 13.354 13.1526 13.379 13.0851L15.531 7.26711Z" fill="#CCCAC6"/>
</g>
</g>
<defs>
<filter id="filter0_f_70_2" x="0" y="86" width="128" height="32" filterUnits="userSpaceOnUse" color-interpolation-filters="sRGB">
<feFlood flood-opacity="0" result="BackgroundImageFix"/>
<feBlend mode="normal" in="SourceGraphic" in2="BackgroundImageFix" result="shape"/>
<feGaussianBlur stdDeviation="6" result="effect1_foregroundBlur_70_2"/>
</filter>
<filter id="filter1_f_70_2" x="-0.611664" y="25" width="128.85" height="68" filterUnits="userSpaceOnUse" color-interpolation-filters="sRGB">
<feFlood flood-opacity="0" result="BackgroundImageFix"/>
<feBlend mode="normal" in="SourceGraphic" in2="BackgroundImageFix" result="shape"/>
<feGaussianBlur stdDeviation="8" result="effect1_foregroundBlur_70_2"/>
</filter>
<linearGradient id="paint0_linear_70_2" x1="57" y1="38" x2="57" y2="91" gradientUnits="userSpaceOnUse">
<stop stop-color="#E5E4E1"/>
<stop offset="1" stop-color="#999792"/>
</linearGradient>
<linearGradient id="paint1_linear_70_2" x1="65.5" y1="40" x2="66" y2="80" gradientUnits="userSpaceOnUse">
<stop stop-color="#CCCAC6"/>
<stop offset="1" stop-color="#999792"/>
</linearGradient>
<linearGradient id="paint2_linear_70_2" x1="15.5" y1="25.668" x2="6.18" y2="103.543" gradientUnits="userSpaceOnUse">
<stop stop-color="#FCFBF9"/>
<stop offset="1" stop-color="#E5E4E1"/>
</linearGradient>
<linearGradient id="paint3_linear_70_2" x1="64.5" y1="3" x2="64.5" y2="68" gradientUnits="userSpaceOnUse">
<stop stop-color="#FCFBF9"/>
<stop offset="1" stop-color="#F7F6F4"/>
</linearGradient>
<clipPath id="clip0_70_2">
<rect width="128" height="128" fill="white"/>
</clipPath>
</defs>
</svg>
